<mxfile host="Electron" agent="Mozilla/5.0 (Windows NT 10.0; Win64; x64) AppleWebKit/537.36 (KHTML, like Gecko) draw.io/26.1.1 Chrome/132.0.6834.210 Electron/34.3.3 Safari/537.36" version="26.1.1">
  <diagram name="Página-1" id="1-rL20PxHnSCu39HCTuG">
    <mxGraphModel dx="2998" dy="2375" grid="1" gridSize="10" guides="1" tooltips="1" connect="1" arrows="1" fold="1" page="1" pageScale="1" pageWidth="827" pageHeight="1169" math="0" shadow="0">
      <root>
        <mxCell id="0" />
        <mxCell id="1" parent="0" />
        <mxCell id="L0yYjMDtzmuDdcfsY8_e-32" style="edgeStyle=orthogonalEdgeStyle;rounded=0;orthogonalLoop=1;jettySize=auto;html=1;entryX=0.007;entryY=0.6;entryDx=0;entryDy=0;entryPerimeter=0;" edge="1" parent="1" source="L0yYjMDtzmuDdcfsY8_e-1" target="L0yYjMDtzmuDdcfsY8_e-26">
          <mxGeometry relative="1" as="geometry">
            <mxPoint x="-200" y="100" as="targetPoint" />
            <Array as="points">
              <mxPoint x="-240" y="100" />
              <mxPoint x="-189" y="100" />
            </Array>
          </mxGeometry>
        </mxCell>
        <mxCell id="L0yYjMDtzmuDdcfsY8_e-1" value="Registra en el sistema&amp;nbsp;" style="ellipse;whiteSpace=wrap;html=1;" vertex="1" parent="1">
          <mxGeometry x="-413" y="-100" width="140" height="70" as="geometry" />
        </mxCell>
        <mxCell id="L0yYjMDtzmuDdcfsY8_e-3" value="Cliente" style="shape=umlActor;html=1;verticalLabelPosition=bottom;verticalAlign=top;align=center;" vertex="1" parent="1">
          <mxGeometry x="260" y="-440" width="30" height="60" as="geometry" />
        </mxCell>
        <mxCell id="L0yYjMDtzmuDdcfsY8_e-28" style="edgeStyle=orthogonalEdgeStyle;rounded=0;orthogonalLoop=1;jettySize=auto;html=1;" edge="1" parent="1" source="L0yYjMDtzmuDdcfsY8_e-26" target="L0yYjMDtzmuDdcfsY8_e-27">
          <mxGeometry relative="1" as="geometry" />
        </mxCell>
        <mxCell id="L0yYjMDtzmuDdcfsY8_e-31" style="edgeStyle=orthogonalEdgeStyle;rounded=0;orthogonalLoop=1;jettySize=auto;html=1;entryX=0;entryY=0.5;entryDx=0;entryDy=0;exitX=0.65;exitY=0.043;exitDx=0;exitDy=0;exitPerimeter=0;" edge="1" parent="1" source="L0yYjMDtzmuDdcfsY8_e-26" target="L0yYjMDtzmuDdcfsY8_e-29">
          <mxGeometry relative="1" as="geometry">
            <Array as="points">
              <mxPoint x="-99" y="-5" />
            </Array>
          </mxGeometry>
        </mxCell>
        <mxCell id="L0yYjMDtzmuDdcfsY8_e-26" value="se validan los datos" style="ellipse;whiteSpace=wrap;html=1;" vertex="1" parent="1">
          <mxGeometry x="-180" y="60" width="140" height="70" as="geometry" />
        </mxCell>
        <mxCell id="L0yYjMDtzmuDdcfsY8_e-27" value="paso 2&lt;br&gt;contraseña" style="ellipse;whiteSpace=wrap;html=1;" vertex="1" parent="1">
          <mxGeometry x="80" y="60" width="140" height="70" as="geometry" />
        </mxCell>
        <mxCell id="L0yYjMDtzmuDdcfsY8_e-29" value="paso1&lt;br&gt;correo electronico" style="ellipse;whiteSpace=wrap;html=1;" vertex="1" parent="1">
          <mxGeometry x="70" y="-40" width="140" height="70" as="geometry" />
        </mxCell>
        <mxCell id="L0yYjMDtzmuDdcfsY8_e-33" value="" style="edgeStyle=orthogonalEdgeStyle;rounded=0;orthogonalLoop=1;jettySize=auto;html=1;exitX=0.5;exitY=0.5;exitDx=0;exitDy=0;exitPerimeter=0;" edge="1" parent="1" source="L0yYjMDtzmuDdcfsY8_e-3" target="L0yYjMDtzmuDdcfsY8_e-21">
          <mxGeometry relative="1" as="geometry">
            <mxPoint x="275" y="-300" as="sourcePoint" />
            <mxPoint x="275" y="-140" as="targetPoint" />
          </mxGeometry>
        </mxCell>
        <mxCell id="L0yYjMDtzmuDdcfsY8_e-84" style="edgeStyle=orthogonalEdgeStyle;rounded=0;orthogonalLoop=1;jettySize=auto;html=1;entryX=0.5;entryY=0;entryDx=0;entryDy=0;" edge="1" parent="1" source="L0yYjMDtzmuDdcfsY8_e-21" target="L0yYjMDtzmuDdcfsY8_e-1">
          <mxGeometry relative="1" as="geometry">
            <Array as="points">
              <mxPoint x="-350" y="-265" />
              <mxPoint x="-350" y="-100" />
            </Array>
          </mxGeometry>
        </mxCell>
        <mxCell id="L0yYjMDtzmuDdcfsY8_e-21" value="Plataforma&lt;div&gt;&lt;br&gt;&lt;/div&gt;" style="ellipse;whiteSpace=wrap;html=1;" vertex="1" parent="1">
          <mxGeometry x="-310" y="-300" width="140" height="70" as="geometry" />
        </mxCell>
        <mxCell id="L0yYjMDtzmuDdcfsY8_e-95" style="edgeStyle=orthogonalEdgeStyle;rounded=0;orthogonalLoop=1;jettySize=auto;html=1;entryX=0.357;entryY=0;entryDx=0;entryDy=0;entryPerimeter=0;" edge="1" parent="1" source="L0yYjMDtzmuDdcfsY8_e-34" target="L0yYjMDtzmuDdcfsY8_e-45">
          <mxGeometry relative="1" as="geometry">
            <mxPoint x="650" as="targetPoint" />
            <Array as="points">
              <mxPoint x="650" y="-220" />
              <mxPoint x="650" y="-40" />
            </Array>
          </mxGeometry>
        </mxCell>
        <mxCell id="L0yYjMDtzmuDdcfsY8_e-34" value="confirma el correo" style="ellipse;whiteSpace=wrap;html=1;" vertex="1" parent="1">
          <mxGeometry x="330" y="-250" width="120" height="60" as="geometry" />
        </mxCell>
        <mxCell id="L0yYjMDtzmuDdcfsY8_e-91" value="" style="edgeStyle=orthogonalEdgeStyle;rounded=0;orthogonalLoop=1;jettySize=auto;html=1;" edge="1" parent="1" source="L0yYjMDtzmuDdcfsY8_e-35" target="L0yYjMDtzmuDdcfsY8_e-34">
          <mxGeometry relative="1" as="geometry" />
        </mxCell>
        <mxCell id="L0yYjMDtzmuDdcfsY8_e-92" value="" style="edgeStyle=orthogonalEdgeStyle;rounded=0;orthogonalLoop=1;jettySize=auto;html=1;entryX=0.427;entryY=-0.051;entryDx=0;entryDy=0;entryPerimeter=0;" edge="1" parent="1" source="L0yYjMDtzmuDdcfsY8_e-35" target="L0yYjMDtzmuDdcfsY8_e-89">
          <mxGeometry relative="1" as="geometry" />
        </mxCell>
        <mxCell id="L0yYjMDtzmuDdcfsY8_e-35" value="asegura que el correo no se haya usado" style="ellipse;whiteSpace=wrap;html=1;" vertex="1" parent="1">
          <mxGeometry x="330" y="-150" width="120" height="60" as="geometry" />
        </mxCell>
        <mxCell id="L0yYjMDtzmuDdcfsY8_e-57" style="edgeStyle=orthogonalEdgeStyle;rounded=0;orthogonalLoop=1;jettySize=auto;html=1;" edge="1" parent="1" source="L0yYjMDtzmuDdcfsY8_e-38" target="L0yYjMDtzmuDdcfsY8_e-41">
          <mxGeometry relative="1" as="geometry" />
        </mxCell>
        <mxCell id="L0yYjMDtzmuDdcfsY8_e-58" style="edgeStyle=orthogonalEdgeStyle;rounded=0;orthogonalLoop=1;jettySize=auto;html=1;entryX=0.5;entryY=0;entryDx=0;entryDy=0;" edge="1" parent="1" source="L0yYjMDtzmuDdcfsY8_e-38" target="L0yYjMDtzmuDdcfsY8_e-47">
          <mxGeometry relative="1" as="geometry" />
        </mxCell>
        <mxCell id="L0yYjMDtzmuDdcfsY8_e-38" value="Que cumpla con los requisitos de caracteristicas&amp;nbsp;" style="ellipse;whiteSpace=wrap;html=1;" vertex="1" parent="1">
          <mxGeometry x="330" y="50" width="140" height="70" as="geometry" />
        </mxCell>
        <mxCell id="L0yYjMDtzmuDdcfsY8_e-56" style="edgeStyle=orthogonalEdgeStyle;rounded=0;orthogonalLoop=1;jettySize=auto;html=1;entryX=0.5;entryY=1;entryDx=0;entryDy=0;" edge="1" parent="1" source="L0yYjMDtzmuDdcfsY8_e-41" target="L0yYjMDtzmuDdcfsY8_e-45">
          <mxGeometry relative="1" as="geometry" />
        </mxCell>
        <mxCell id="L0yYjMDtzmuDdcfsY8_e-41" value="Contraseña valida&lt;div&gt;&lt;br&gt;&lt;/div&gt;" style="ellipse;whiteSpace=wrap;html=1;" vertex="1" parent="1">
          <mxGeometry x="400" y="170" width="140" height="70" as="geometry" />
        </mxCell>
        <mxCell id="L0yYjMDtzmuDdcfsY8_e-42" style="edgeStyle=orthogonalEdgeStyle;rounded=0;orthogonalLoop=1;jettySize=auto;html=1;entryX=0;entryY=0.643;entryDx=0;entryDy=0;entryPerimeter=0;" edge="1" parent="1" source="L0yYjMDtzmuDdcfsY8_e-27" target="L0yYjMDtzmuDdcfsY8_e-38">
          <mxGeometry relative="1" as="geometry" />
        </mxCell>
        <mxCell id="L0yYjMDtzmuDdcfsY8_e-119" style="edgeStyle=orthogonalEdgeStyle;rounded=0;orthogonalLoop=1;jettySize=auto;html=1;entryX=0;entryY=0.5;entryDx=0;entryDy=0;" edge="1" parent="1" source="L0yYjMDtzmuDdcfsY8_e-45" target="L0yYjMDtzmuDdcfsY8_e-106">
          <mxGeometry relative="1" as="geometry">
            <Array as="points">
              <mxPoint x="680" y="-90" />
              <mxPoint x="815" y="-90" />
              <mxPoint x="815" y="-175" />
            </Array>
          </mxGeometry>
        </mxCell>
        <mxCell id="L0yYjMDtzmuDdcfsY8_e-120" style="edgeStyle=orthogonalEdgeStyle;rounded=0;orthogonalLoop=1;jettySize=auto;html=1;" edge="1" parent="1" source="L0yYjMDtzmuDdcfsY8_e-45" target="L0yYjMDtzmuDdcfsY8_e-107">
          <mxGeometry relative="1" as="geometry" />
        </mxCell>
        <mxCell id="L0yYjMDtzmuDdcfsY8_e-45" value="confirmacion de datos" style="ellipse;whiteSpace=wrap;html=1;" vertex="1" parent="1">
          <mxGeometry x="610" y="-40" width="140" height="70" as="geometry" />
        </mxCell>
        <mxCell id="L0yYjMDtzmuDdcfsY8_e-88" style="edgeStyle=orthogonalEdgeStyle;rounded=0;orthogonalLoop=1;jettySize=auto;html=1;entryX=0.427;entryY=0.949;entryDx=0;entryDy=0;entryPerimeter=0;exitX=0.029;exitY=0.643;exitDx=0;exitDy=0;exitPerimeter=0;" edge="1" parent="1" source="L0yYjMDtzmuDdcfsY8_e-47" target="L0yYjMDtzmuDdcfsY8_e-27">
          <mxGeometry relative="1" as="geometry">
            <mxPoint x="140" y="150" as="targetPoint" />
            <Array as="points">
              <mxPoint x="140" y="215" />
            </Array>
          </mxGeometry>
        </mxCell>
        <mxCell id="L0yYjMDtzmuDdcfsY8_e-47" value="rechazada" style="ellipse;whiteSpace=wrap;html=1;" vertex="1" parent="1">
          <mxGeometry x="210" y="170" width="140" height="70" as="geometry" />
        </mxCell>
        <mxCell id="L0yYjMDtzmuDdcfsY8_e-50" style="edgeStyle=orthogonalEdgeStyle;rounded=0;orthogonalLoop=1;jettySize=auto;html=1;entryX=0;entryY=0.5;entryDx=0;entryDy=0;" edge="1" parent="1" source="L0yYjMDtzmuDdcfsY8_e-29" target="L0yYjMDtzmuDdcfsY8_e-35">
          <mxGeometry relative="1" as="geometry">
            <Array as="points">
              <mxPoint x="140" y="-120" />
            </Array>
          </mxGeometry>
        </mxCell>
        <mxCell id="L0yYjMDtzmuDdcfsY8_e-85" value="Espectador" style="ellipse;whiteSpace=wrap;html=1;" vertex="1" parent="1">
          <mxGeometry x="-230" y="-100" width="140" height="70" as="geometry" />
        </mxCell>
        <mxCell id="L0yYjMDtzmuDdcfsY8_e-86" style="edgeStyle=orthogonalEdgeStyle;rounded=0;orthogonalLoop=1;jettySize=auto;html=1;entryX=0.671;entryY=0.112;entryDx=0;entryDy=0;entryPerimeter=0;" edge="1" parent="1" source="L0yYjMDtzmuDdcfsY8_e-21" target="L0yYjMDtzmuDdcfsY8_e-85">
          <mxGeometry relative="1" as="geometry">
            <Array as="points">
              <mxPoint x="-136" y="-265" />
            </Array>
          </mxGeometry>
        </mxCell>
        <mxCell id="L0yYjMDtzmuDdcfsY8_e-90" style="edgeStyle=orthogonalEdgeStyle;rounded=0;orthogonalLoop=1;jettySize=auto;html=1;entryX=1;entryY=0.5;entryDx=0;entryDy=0;" edge="1" parent="1" source="L0yYjMDtzmuDdcfsY8_e-89" target="L0yYjMDtzmuDdcfsY8_e-29">
          <mxGeometry relative="1" as="geometry" />
        </mxCell>
        <mxCell id="L0yYjMDtzmuDdcfsY8_e-89" value="rechazada" style="ellipse;whiteSpace=wrap;html=1;" vertex="1" parent="1">
          <mxGeometry x="330" y="-40" width="140" height="70" as="geometry" />
        </mxCell>
        <mxCell id="L0yYjMDtzmuDdcfsY8_e-110" value="" style="edgeStyle=orthogonalEdgeStyle;rounded=0;orthogonalLoop=1;jettySize=auto;html=1;" edge="1" parent="1" source="L0yYjMDtzmuDdcfsY8_e-106" target="L0yYjMDtzmuDdcfsY8_e-109">
          <mxGeometry relative="1" as="geometry" />
        </mxCell>
        <mxCell id="L0yYjMDtzmuDdcfsY8_e-112" value="" style="edgeStyle=orthogonalEdgeStyle;rounded=0;orthogonalLoop=1;jettySize=auto;html=1;" edge="1" parent="1" source="L0yYjMDtzmuDdcfsY8_e-106" target="L0yYjMDtzmuDdcfsY8_e-111">
          <mxGeometry relative="1" as="geometry" />
        </mxCell>
        <mxCell id="L0yYjMDtzmuDdcfsY8_e-106" value="administrador" style="ellipse;whiteSpace=wrap;html=1;" vertex="1" parent="1">
          <mxGeometry x="880" y="-210" width="140" height="70" as="geometry" />
        </mxCell>
        <mxCell id="L0yYjMDtzmuDdcfsY8_e-114" value="" style="edgeStyle=orthogonalEdgeStyle;rounded=0;orthogonalLoop=1;jettySize=auto;html=1;" edge="1" parent="1" source="L0yYjMDtzmuDdcfsY8_e-107" target="L0yYjMDtzmuDdcfsY8_e-113">
          <mxGeometry relative="1" as="geometry" />
        </mxCell>
        <mxCell id="L0yYjMDtzmuDdcfsY8_e-107" value="entrenador" style="ellipse;whiteSpace=wrap;html=1;" vertex="1" parent="1">
          <mxGeometry x="900" y="-40" width="140" height="70" as="geometry" />
        </mxCell>
        <mxCell id="L0yYjMDtzmuDdcfsY8_e-125" value="" style="edgeStyle=orthogonalEdgeStyle;rounded=0;orthogonalLoop=1;jettySize=auto;html=1;" edge="1" parent="1" source="L0yYjMDtzmuDdcfsY8_e-108" target="L0yYjMDtzmuDdcfsY8_e-124">
          <mxGeometry relative="1" as="geometry" />
        </mxCell>
        <mxCell id="L0yYjMDtzmuDdcfsY8_e-108" value="cliente" style="ellipse;whiteSpace=wrap;html=1;" vertex="1" parent="1">
          <mxGeometry x="1460" y="-40" width="140" height="70" as="geometry" />
        </mxCell>
        <mxCell id="L0yYjMDtzmuDdcfsY8_e-127" value="" style="edgeStyle=orthogonalEdgeStyle;rounded=0;orthogonalLoop=1;jettySize=auto;html=1;" edge="1" parent="1" source="L0yYjMDtzmuDdcfsY8_e-109" target="L0yYjMDtzmuDdcfsY8_e-126">
          <mxGeometry relative="1" as="geometry" />
        </mxCell>
        <mxCell id="L0yYjMDtzmuDdcfsY8_e-129" value="" style="edgeStyle=orthogonalEdgeStyle;rounded=0;orthogonalLoop=1;jettySize=auto;html=1;" edge="1" parent="1" source="L0yYjMDtzmuDdcfsY8_e-109" target="L0yYjMDtzmuDdcfsY8_e-128">
          <mxGeometry relative="1" as="geometry" />
        </mxCell>
        <mxCell id="L0yYjMDtzmuDdcfsY8_e-131" value="" style="edgeStyle=orthogonalEdgeStyle;rounded=0;orthogonalLoop=1;jettySize=auto;html=1;" edge="1" parent="1" source="L0yYjMDtzmuDdcfsY8_e-109" target="L0yYjMDtzmuDdcfsY8_e-130">
          <mxGeometry relative="1" as="geometry" />
        </mxCell>
        <mxCell id="L0yYjMDtzmuDdcfsY8_e-109" value="gentiona al cliente" style="ellipse;whiteSpace=wrap;html=1;" vertex="1" parent="1">
          <mxGeometry x="880" y="-360" width="140" height="70" as="geometry" />
        </mxCell>
        <mxCell id="L0yYjMDtzmuDdcfsY8_e-111" value="reportes de clientes" style="ellipse;whiteSpace=wrap;html=1;" vertex="1" parent="1">
          <mxGeometry x="1080" y="-210" width="140" height="70" as="geometry" />
        </mxCell>
        <mxCell id="L0yYjMDtzmuDdcfsY8_e-116" value="" style="edgeStyle=orthogonalEdgeStyle;rounded=0;orthogonalLoop=1;jettySize=auto;html=1;" edge="1" parent="1" source="L0yYjMDtzmuDdcfsY8_e-113" target="L0yYjMDtzmuDdcfsY8_e-115">
          <mxGeometry relative="1" as="geometry" />
        </mxCell>
        <mxCell id="L0yYjMDtzmuDdcfsY8_e-118" value="" style="edgeStyle=orthogonalEdgeStyle;rounded=0;orthogonalLoop=1;jettySize=auto;html=1;" edge="1" parent="1" source="L0yYjMDtzmuDdcfsY8_e-113" target="L0yYjMDtzmuDdcfsY8_e-117">
          <mxGeometry relative="1" as="geometry" />
        </mxCell>
        <mxCell id="L0yYjMDtzmuDdcfsY8_e-113" value="administra la clase" style="ellipse;whiteSpace=wrap;html=1;" vertex="1" parent="1">
          <mxGeometry x="1100" y="-20" width="140" height="70" as="geometry" />
        </mxCell>
        <mxCell id="L0yYjMDtzmuDdcfsY8_e-123" style="edgeStyle=orthogonalEdgeStyle;rounded=0;orthogonalLoop=1;jettySize=auto;html=1;entryX=0.5;entryY=0;entryDx=0;entryDy=0;" edge="1" parent="1" source="L0yYjMDtzmuDdcfsY8_e-115" target="L0yYjMDtzmuDdcfsY8_e-108">
          <mxGeometry relative="1" as="geometry" />
        </mxCell>
        <mxCell id="L0yYjMDtzmuDdcfsY8_e-115" value="confirma" style="ellipse;whiteSpace=wrap;html=1;" vertex="1" parent="1">
          <mxGeometry x="1200" y="-130" width="140" height="70" as="geometry" />
        </mxCell>
        <mxCell id="L0yYjMDtzmuDdcfsY8_e-117" value="cancela" style="ellipse;whiteSpace=wrap;html=1;" vertex="1" parent="1">
          <mxGeometry x="1101" y="100" width="140" height="70" as="geometry" />
        </mxCell>
        <mxCell id="L0yYjMDtzmuDdcfsY8_e-124" value="conforma la clase" style="ellipse;whiteSpace=wrap;html=1;" vertex="1" parent="1">
          <mxGeometry x="1660" y="-40" width="140" height="70" as="geometry" />
        </mxCell>
        <mxCell id="L0yYjMDtzmuDdcfsY8_e-126" value="alta" style="ellipse;whiteSpace=wrap;html=1;" vertex="1" parent="1">
          <mxGeometry x="880" y="-570" width="140" height="70" as="geometry" />
        </mxCell>
        <mxCell id="L0yYjMDtzmuDdcfsY8_e-128" value="baja" style="ellipse;whiteSpace=wrap;html=1;" vertex="1" parent="1">
          <mxGeometry x="1100" y="-360" width="140" height="70" as="geometry" />
        </mxCell>
        <mxCell id="L0yYjMDtzmuDdcfsY8_e-130" value="modificacion" style="ellipse;whiteSpace=wrap;html=1;" vertex="1" parent="1">
          <mxGeometry x="660" y="-360" width="140" height="70" as="geometry" />
        </mxCell>
      </root>
    </mxGraphModel>
  </diagram>
</mxfile>
